<svg  xmlns="http://www.w3.org/2000/svg" xmlns:xlink="http://www.w3.org/1999/xlink" x="0px" y="0px"
	 viewBox="0 0 195.9 142" xml:space="preserve">

<g>
	<g>
		<path d="M189.4,85.9c-3.1-5.7-12.9-8.4-20.7-7.7c-6.4,0.6-12.4,3.4-18.1,5.6c-14.7,5.7-29.4,8.2-29.4,8.2
			c-7.8,1-15.8,1.8-23.8,1.9c-8-0.1-16-0.9-23.8-1.9c0,0-14.7-2.5-29.4-8.2c-5.6-2.2-11.7-5-18.1-5.6c-7.7-0.7-17.6,2-20.7,7.7
			c-1.9,3.5-1.8,7.5-1,11.2c1.1,4.7,6.8,10.8,20.6,16.2c13.8,5.4,30.4,13,70.9,13.4c0.5,0,0.9,0,1.4,0l0,0c0,0,0,0,0,0c0,0,0,0,0,0
			l0,0c0.5,0,0.9,0,1.4,0c40.4-0.4,57-8,70.9-13.4c13.8-5.4,19.6-11.5,20.6-16.2C191.2,93.4,191.2,89.4,189.4,85.9z"/>
	</g>
	<circle cx="47.2" cy="121.3" r="16.1" />
	<circle cx="149.9" cy="121.3" r="17.5" />
</g>
<g>
	<path d="M101.1-0.1c0,0-15.4,7.5-8.8,22.6c7,15.9,0.5,30,0.5,30c3-2.7,4.8-7,5.8-10.7c1.2-4.5,1.1-9,0.7-13.6
		c-0.5-4.7-3.2-9.1-3.2-13.7C96.1,9.3,98.3,4.2,101.1-0.1z"/>
	<path  d="M116.8,19.7c0,0-10.9,5.3-6.6,17c4.2,11.4,0.4,22.5,0.4,22.5c2.2-2,3.6-5.2,4.4-8.1c0.9-3.4,0.9-6.7,0.5-10.2
		c-0.4-3.5-2.4-6.8-2.4-10.3C113.1,26.7,114.7,23,116.8,19.7z"/>
	<path d="M84,19.7c0,0-11.8,5.7-6.6,17c5.3,11.6,0.4,22.5,0.4,22.5c2.2-2,3.6-5.2,4.4-8.1c0.9-3.4,0.9-6.7,0.5-10.2
		c-0.4-3.5-2.4-6.8-2.4-10.3C80.3,26.7,81.9,23,84,19.7z"/>
</g>
</svg>
